<?xml version="1.0" encoding="UTF-8"?>
<svg version="1.1" xmlns="http://www.w3.org/2000/svg" width="500" height="500">
<path d="M0 0 C2.9716091 2.66682868 3.89832332 4.1526943 4.375 8.125 C4 11 4 11 2 14 C-2.05445642 14.43132515 -3.54970958 14.30019361 -7 12 C-7.66 12.99 -8.32 13.98 -9 15 C-8.43410156 15.45890625 -7.86820312 15.9178125 -7.28515625 16.390625 C-6.55167969 17.00421875 -5.81820312 17.6178125 -5.0625 18.25 C-4.33160156 18.85328125 -3.60070312 19.4565625 -2.84765625 20.078125 C-0.89673666 22.10741134 -0.38268221 23.254407 0 26 C-1.32 26.66 -2.64 27.32 -4 28 C-4 27.34 -4 26.68 -4 26 C-4.53625 25.7525 -5.0725 25.505 -5.625 25.25 C-8.56424252 23.70303025 -11.25754408 21.86985631 -14 20 C-14.28875 20.763125 -14.5775 21.52625 -14.875 22.3125 C-16 25 -16 25 -18 28 C-18.26419199 30.98451564 -18.26419199 30.98451564 -18.16357422 34.42407227 C-18.1574411 35.07169022 -18.15130798 35.71930817 -18.14498901 36.3865509 C-18.13068844 37.79270429 -18.11191322 39.19881766 -18.08919907 40.60486031 C-18.05434425 42.83840207 -18.03379421 45.07165584 -18.0173645 47.30540466 C-17.96854884 53.65643613 -17.8978904 60.00708357 -17.80810547 66.35766602 C-17.75415322 70.24497336 -17.72031606 74.13205343 -17.69836807 78.01966667 C-17.68604484 79.4935535 -17.66615689 80.96739909 -17.6382103 82.44107246 C-17.47998789 90.86684865 -17.58879358 98.53896694 -22 106 C-25.60853645 109.60853645 -28.31472033 110.90807565 -33.4375 111.1875 C-36.69506736 111.01604909 -38.3105791 110.72122938 -41 109 C-41.28875 109.61875 -41.5775 110.2375 -41.875 110.875 C-43 113 -43 113 -45 115 C-45.763125 115.804375 -46.52625 116.60875 -47.3125 117.4375 C-52.41316844 122.30092805 -56.13785708 123.41846246 -63 124 C-63 124.33 -63 124.66 -63 125 C-64.98 125 -66.96 125 -69 125 C-69 124.34 -69 123.68 -69 123 C-70.11375 123.309375 -70.11375 123.309375 -71.25 123.625 C-74.43806012 124.05973547 -75.29581607 123.60560921 -78 122 C-78.7425 121.773125 -79.485 121.54625 -80.25 121.3125 C-87.4906883 117.85671695 -92.20346946 112.4328838 -95 105 C-97.99017695 96.4779957 -97.44603628 89.25235003 -94 81 C-87.28522858 69.50349742 -77.74852871 65.09947874 -65.58203125 60.7890625 C-52.85189493 56.18922038 -47.03602677 49.19599686 -39.40625 38.30859375 C-38.95677002 37.66986328 -38.50729004 37.03113281 -38.04418945 36.37304688 C-37.14770958 35.09406677 -36.25807127 33.81026071 -35.37573242 32.52148438 C-34.29931179 30.97907436 -33.15504105 29.48444946 -32 28 C-31.34 28 -30.68 28 -30 28 C-29.62875 26.948125 -29.62875 26.948125 -29.25 25.875 C-27.83911974 22.62997541 -26.02104602 19.89683263 -24 17 C-25.98 16.67 -27.96 16.34 -30 16 C-30.625 13.6875 -30.625 13.6875 -31 11 C-30.34 10.01 -29.68 9.02 -29 8 C-27.68 8 -26.36 8 -25 8 C-25 8.66 -25 9.32 -25 10 C-24.01 10.33 -23.02 10.66 -22 11 C-22 11.66 -22 12.32 -22 13 C-21.01 13 -20.02 13 -19 13 C-19 12.34 -19 11.68 -19 11 C-20.32 10.34 -21.64 9.68 -23 9 C-23 8.34 -23 7.68 -23 7 C-23.66 7 -24.32 7 -25 7 C-24.67 5.35 -24.34 3.7 -24 2 C-20.98968256 1.06576355 -20.13349732 0.95550089 -17 2 C-17 2.66 -17 3.32 -17 4 C-16.01 4.33 -15.02 4.66 -14 5 C-13.21625 4.195625 -12.4325 3.39125 -11.625 2.5625 C-7.511913 -1.45265635 -5.58304506 -1.34763157 0 0 Z M-27 43 C-29.13344807 45.36192462 -31.07713162 47.88818429 -33.0625 50.375 C-33.63033203 51.07367188 -34.19816406 51.77234375 -34.78320312 52.4921875 C-35.32009766 53.1625 -35.85699219 53.8328125 -36.41015625 54.5234375 C-37.15471069 55.450354 -37.15471069 55.450354 -37.91430664 56.39599609 C-39.18684439 57.95322832 -39.18684439 57.95322832 -39 60 C-39.99 60.33 -40.98 60.66 -42 61 C-43.38123963 62.96722008 -44.71488126 64.96868328 -46 67 C-46.66 67.66 -47.32 68.32 -48 69 C-48.61875 70.03125 -49.2375 71.0625 -49.875 72.125 C-50.926875 73.548125 -50.926875 73.548125 -52 75 C-53.32 75 -54.64 75 -56 75 C-55.50628906 74.25234375 -55.01257813 73.5046875 -54.50390625 72.734375 C-53.54291016 71.25710937 -53.54291016 71.25710937 -52.5625 69.75 C-51.92441406 68.77546875 -51.28632812 67.8009375 -50.62890625 66.796875 C-49.2423864 64.41618385 -48.453419 62.68219693 -48 60 C-49.98 60.99 -49.98 60.99 -52 62 C-52 62.99 -52 63.98 -52 65 C-54.31 65.33 -56.62 65.66 -59 66 C-59 66.66 -59 67.32 -59 68 C-59.78503906 68.18175781 -60.57007812 68.36351562 -61.37890625 68.55078125 C-69.94695562 70.56355509 -69.94695562 70.56355509 -78 74 C-78.495 75.485 -78.495 75.485 -79 77 C-79.598125 77.268125 -80.19625 77.53625 -80.8125 77.8125 C-84.01054537 79.54858177 -85.22274643 81.87448511 -87 85 C-88.00697746 88.80844039 -88.10566205 92.38475384 -88.0625 96.3125 C-88.05347656 97.38113281 -88.04445313 98.44976562 -88.03515625 99.55078125 C-88.02355469 100.35902344 -88.01195313 101.16726563 -88 102 C-87.34 102 -86.68 102 -86 102 C-85.91105469 102.74894531 -85.82210937 103.49789062 -85.73046875 104.26953125 C-84.47733172 108.95371727 -80.81611787 111.25296153 -77 114 C-71.28582346 116.85708827 -64.39342871 116.84835718 -58.25 115.3125 C-52.09351795 111.7212188 -48.30080237 107.80766818 -46 101 C-46 99.68 -46 98.36 -46 97 C-45.34 96.67 -44.68 96.34 -44 96 C-44 95.01 -44 94.02 -44 93 C-43.34 92.67 -42.68 92.34 -42 92 C-41.566875 91.34 -41.13375 90.68 -40.6875 90 C-38.58613653 87.50949515 -37.17091133 87.34280122 -34 87 C-34 86.34 -34 85.68 -34 85 C-32.35 85 -30.7 85 -29 85 C-28.67 85.66 -28.34 86.32 -28 87 C-27.34 86.67 -26.68 86.34 -26 86 C-26 71.81 -26 57.62 -26 43 C-26.33 43 -26.66 43 -27 43 Z " fill="#AEBA4D" transform="translate(162,157)"/>
<path d="M0 0 C7.404375 -0.28875 14.80875 -0.5775 22.4375 -0.875 C24.7570874 -1.00245605 27.0766748 -1.12991211 29.46655273 -1.26123047 C43.70991004 -1.71008484 43.70991004 -1.71008484 47.9006958 1.41931152 C51.25788152 5.15706733 53.24333795 9.32985886 55 14 C58.11940834 11.02590081 59.60205219 8.71900106 61.25 4.75 C62.7421875 2.0859375 62.7421875 2.0859375 65 0 C70.45394466 -0.8963909 75.52508053 -0.58520517 81 0 C78.58086804 4.71068712 76.06443801 9.08541211 72.703125 13.19140625 C62.59293081 25.79570725 61.17112188 36.06108149 62 52 C57.71 52 53.42 52 49 52 C49.12503906 50.55753906 49.25007813 49.11507812 49.37890625 47.62890625 C50.22977353 28.47389792 42.55804678 17.32196725 31 3 C30.67 5.64 30.34 8.28 30 11 C24.06 11 18.12 11 12 11 C12 13.97 12 16.94 12 20 C17.61 20 23.22 20 29 20 C29 23.96 29 27.92 29 32 C23.39 32 17.78 32 12 32 C12 38.6 12 45.2 12 52 C8.04 52 4.08 52 0 52 C0 34.84 0 17.68 0 0 Z " fill="#48995C" transform="translate(338,211)"/>
<path d="M0 0 C1.89201582 1.31957882 3.42612859 2.69562651 4.98828125 4.38671875 C3.32076977 8.32810953 0.76117476 11.17599995 -2.01171875 14.38671875 C-4.21082991 13.36570285 -6.01630452 12.38289727 -7.88671875 10.82421875 C-10.68696799 8.9299325 -12.63497729 8.52178841 -16.01171875 8.38671875 C-21.17840816 10.14339315 -23.51474415 12.57773063 -26.01171875 17.38671875 C-27.67888472 23.27737185 -26.71556928 28.01021597 -24.01171875 33.38671875 C-21.62506742 35.8989833 -19.82900094 37.06410736 -16.63671875 38.32421875 C-12.81746267 38.41515342 -10.33231632 37.2036495 -7.01171875 35.38671875 C-6.35171875 34.06671875 -5.69171875 32.74671875 -5.01171875 31.38671875 C-8.64171875 31.05671875 -12.27171875 30.72671875 -16.01171875 30.38671875 C-16.01171875 26.75671875 -16.01171875 23.12671875 -16.01171875 19.38671875 C-7.76171875 19.38671875 0.48828125 19.38671875 8.98828125 19.38671875 C9.80737033 36.09613589 9.80737033 36.09613589 3.98828125 43.38671875 C-4.35557637 50.53233412 -12.38291944 51.15305851 -23.01171875 50.38671875 C-30.37054503 48.59550057 -35.28395052 42.85561563 -39.11328125 36.58203125 C-42.42565189 29.36911202 -42.33034009 19.49524295 -39.94921875 12.01171875 C-36.81326011 5.21471073 -31.70350982 -0.30405444 -24.66015625 -2.984375 C-15.83344238 -5.08039407 -7.91283309 -4.42852676 0 0 Z " fill="#48995C" transform="translate(192.01171875,213.61328125)"/>
<path d="M0 0 C9.9 0 19.8 0 30 0 C30 3.63 30 7.26 30 11 C24.39 11 18.78 11 13 11 C13 13.97 13 16.94 13 20 C18.61 20 24.22 20 30 20 C30 23.96 30 27.92 30 32 C24.39 32 18.78 32 13 32 C13 34.97 13 37.94 13 41 C18.61 41 24.22 41 30 41 C30 44.63 30 48.26 30 52 C20.1 52 10.2 52 0 52 C0 34.84 0 17.68 0 0 Z " fill="#48995C" transform="translate(243,211)"/>
<path d="M0 0 C9.9 0 19.8 0 30 0 C30 3.63 30 7.26 30 11 C24.39 11 18.78 11 13 11 C13 13.97 13 16.94 13 20 C18.61 20 24.22 20 30 20 C30 23.96 30 27.92 30 32 C24.39 32 18.78 32 13 32 C13 34.97 13 37.94 13 41 C18.61 41 24.22 41 30 41 C30 44.63 30 48.26 30 52 C20.1 52 10.2 52 0 52 C0 34.84 0 17.68 0 0 Z " fill="#48995C" transform="translate(206,211)"/>
<path d="M0 0 C12.21 0 24.42 0 37 0 C37 3.63 37 7.26 37 11 C33.04 11 29.08 11 25 11 C25 24.53 25 38.06 25 52 C20.71 52 16.42 52 12 52 C12 38.47 12 24.94 12 11 C8.04 11 4.08 11 0 11 C0 7.37 0 3.74 0 0 Z " fill="#48995C" transform="translate(277,211)"/>
<path d="M0 0 C2.46800047 1.15173355 4.04783565 2.04783565 6 4 C8.16447898 4.64012144 8.16447898 4.64012144 10.5625 5.0625 C14.90277778 5.90277778 14.90277778 5.90277778 16 7 C16.20235666 9.54969386 16.31915246 12.09692964 16.42578125 14.65234375 C16.75763398 17.17527888 16.75763398 17.17527888 19.04296875 18.31640625 C19.68878906 18.54199219 20.33460937 18.76757812 21 19 C20.1875 21.4375 20.1875 21.4375 19 24 C18.01 24.33 17.02 24.66 16 25 C16 27.64 16 30.28 16 33 C15.34 33 14.68 33 14 33 C14 33.66 14 34.32 14 35 C12.7625 35.0825 11.525 35.165 10.25 35.25 C6.18979468 35.72178442 4.78952038 37.01122816 2 40 C-0.0625 39.9375 -0.0625 39.9375 -2 39 C-2.43828125 38.51015625 -2.8765625 38.0203125 -3.328125 37.515625 C-5.40354261 35.63417165 -6.95526547 35.32726883 -9.6875 34.8125 C-10.89986328 34.57466797 -10.89986328 34.57466797 -12.13671875 34.33203125 C-12.75160156 34.22246094 -13.36648437 34.11289062 -14 34 C-13.814375 32.453125 -13.814375 32.453125 -13.625 30.875 C-14.13921048 25.56149168 -16.02517787 24.39516057 -20 21 C-18.9181242 18.47562314 -18.02564829 17.0225394 -15.9375 15.1875 C-13.34810812 12.26399304 -13.35984499 9.81435694 -13 6 C-12 5 -12 5 -10.15234375 4.90234375 C-8.1015625 4.93489583 -6.05078125 4.96744792 -4 5 C-3.67 4.01 -3.34 3.02 -3 2 C-2.01 2 -1.02 2 0 2 C0 1.34 0 0.68 0 0 Z M0 7 C0 7.99 0 8.98 0 10 C0.66 10 1.32 10 2 10 C1.67 9.01 1.34 8.02 1 7 C0.67 7 0.34 7 0 7 Z M-10 10 C-9 13 -9 13 -9 13 Z M-8 11 C-7 14 -7 14 -7 14 Z M7 11 C11 12 11 12 11 12 Z M4 14 C5 17 5 17 5 17 Z M-13 19 C-12.01 19.99 -11.02 20.98 -10 22 C-9.67 21.01 -9.34 20.02 -9 19 C-10.32 19 -11.64 19 -13 19 Z M11 19 C11 19.66 11 20.32 11 21 C11.99 21 12.98 21 14 21 C14 20.34 14 19.68 14 19 C13.01 19 12.02 19 11 19 Z M-6 23 C-4.02 23.99 -4.02 23.99 -2 25 C-2 24.34 -2 23.68 -2 23 C-3.32 23 -4.64 23 -6 23 Z M-1 23 C-0.67 24.65 -0.34 26.3 0 28 C0.66 26.68 1.32 25.36 2 24 C1.01 23.67 0.02 23.34 -1 23 Z M4 23 C5 26 5 26 5 26 Z M-10 27 C-9 31 -9 31 -9 31 Z M-8 27 C-8 27.66 -8 28.32 -8 29 C-7.01 28.67 -6.02 28.34 -5 28 C-5.99 27.67 -6.98 27.34 -8 27 Z M8 27 C8 27.66 8 28.32 8 29 C8.99 28.67 9.98 28.34 11 28 C10.01 27.67 9.02 27.34 8 27 Z M0 30 C0.33 30.99 0.66 31.98 1 33 C1 32.01 1 31.02 1 30 C0.67 30 0.34 30 0 30 Z " fill="#52B064" transform="translate(95,230)"/>
<path d="M0 0 C3.96 0 7.92 0 12 0 C12 17.16 12 34.32 12 52 C8.04 52 4.08 52 0 52 C0 34.84 0 17.68 0 0 Z " fill="#48995C" transform="translate(318,211)"/>
<path d="M0 0 C2.46800047 1.15173355 4.04783565 2.04783565 6 4 C8.16447898 4.64012144 8.16447898 4.64012144 10.5625 5.0625 C14.90277778 5.90277778 14.90277778 5.90277778 16 7 C16.07179964 8.51928038 16.08392007 10.04167482 16.0625 11.5625 C16.05347656 12.38878906 16.04445312 13.21507812 16.03515625 14.06640625 C16.02355469 14.70449219 16.01195312 15.34257812 16 16 C14.68 15.34 13.36 14.68 12 14 C10.68 15.32 9.36 16.64 8 18 C8.66 18 9.32 18 10 18 C10 18.66 10 19.32 10 20 C6.62537285 19.45276317 4.91765 18.9451 2 17 C0.34450469 16.61500109 -1.3222433 16.27206865 -3 16 C-2.67 17.65 -2.34 19.3 -2 21 C-4.31 21.33 -6.62 21.66 -9 22 C-9 21.01 -9 20.02 -9 19 C-9.7425 19.20625 -10.485 19.4125 -11.25 19.625 C-14.32330841 20.04408751 -15.42786866 19.61949011 -18 18 C-17.0409375 16.9790625 -17.0409375 16.9790625 -16.0625 15.9375 C-13.66906372 12.52866651 -13.39352024 10.09261048 -13 6 C-12 5 -12 5 -10.15234375 4.90234375 C-8.1015625 4.93489583 -6.05078125 4.96744792 -4 5 C-3.67 4.01 -3.34 3.02 -3 2 C-2.01 2 -1.02 2 0 2 C0 1.34 0 0.68 0 0 Z M0 7 C0 7.99 0 8.98 0 10 C0.66 10 1.32 10 2 10 C1.67 9.01 1.34 8.02 1 7 C0.67 7 0.34 7 0 7 Z M-10 10 C-9 13 -9 13 -9 13 Z M-8 11 C-7 14 -7 14 -7 14 Z M7 11 C11 12 11 12 11 12 Z M4 14 C5 17 5 17 5 17 Z " fill="#66B05A" transform="translate(95,230)"/>
<path d="M0 0 C-0.165 0.94875 -0.33 1.8975 -0.5 2.875 C-1.0526635 5.80168901 -1.0526635 5.80168901 -1 8 C-1 24.66666667 -1 41.33333333 -1 58 C-1.33 58 -1.66 58 -2 58 C-2.33 43.48 -2.66 28.96 -3 14 C-6.63 18.62 -10.26 23.24 -14 28 C-15.32 29.65 -16.64 31.3 -18 33 C-19.74440981 35.26849784 -21.48351573 37.54088312 -23.21875 39.81640625 C-25.02350581 42.02881523 -26.94885297 44.01632491 -29 46 C-29.99 45.67 -30.98 45.34 -32 45 C-30.6703954 41.01118621 -28.68017832 38.07541529 -26.21484375 34.73828125 C-24.8645256 32.89611631 -24.8645256 32.89611631 -23.625 30.25 C-19.43779478 21.87558956 -14.03807029 14.57943944 -8.1875 7.3125 C-7.61209473 6.59271973 -7.03668945 5.87293945 -6.44384766 5.13134766 C-5.89905762 4.46538574 -5.35426758 3.79942383 -4.79296875 3.11328125 C-4.3033667 2.51298096 -3.81376465 1.91268066 -3.30932617 1.29418945 C-2 0 -2 0 0 0 Z " fill="#BCD051" transform="translate(138,187)"/>
<path d="M0 0 C0.8353125 0.2165625 0.8353125 0.2165625 1.6875 0.4375 C4.03971043 1.03962049 4.03971043 1.03962049 6.625 1.4375 C9 2 9 2 11 4 C10 5 10 5 7.125 5.1875 C4 5 4 5 1 3 C0.01 4.485 0.01 4.485 -1 6 C-0.15115234 6.68835938 -0.15115234 6.68835938 0.71484375 7.390625 C1.44832031 8.00421875 2.18179688 8.6178125 2.9375 9.25 C3.66839844 9.85328125 4.39929688 10.4565625 5.15234375 11.078125 C7.10326334 13.10741134 7.61731779 14.254407 8 17 C6.02 17.99 6.02 17.99 4 19 C4 18.34 4 17.68 4 17 C3.46375 16.7525 2.9275 16.505 2.375 16.25 C-0.56424252 14.70303025 -3.25754408 12.86985631 -6 11 C-6.433125 12.1446875 -6.433125 12.1446875 -6.875 13.3125 C-8 16 -8 16 -10 19 C-10.29175959 22.05501994 -10.29175959 22.05501994 -10.22705078 25.58276367 C-10.22734283 26.24644455 -10.22763489 26.91012543 -10.22793579 27.59391785 C-10.22654357 29.78540161 -10.21098779 31.97654445 -10.1953125 34.16796875 C-10.19158198 35.68825596 -10.18873519 37.20854558 -10.18673706 38.72883606 C-10.17910366 42.72869514 -10.15945774 46.72840879 -10.1373291 50.72821045 C-10.11686434 54.81032341 -10.107734 58.89245989 -10.09765625 62.97460938 C-10.07621152 70.98313963 -10.04207917 78.99155172 -10 87 C-10.99 87.495 -10.99 87.495 -12 88 C-12.41410624 79.48328833 -12.70372946 70.96428209 -12.93310547 62.4407959 C-12.97952341 60.74713396 -13.02818352 59.05353258 -13.07861328 57.35998535 C-13.24758926 51.63782138 -13.37330901 45.91691556 -13.4519043 40.19277954 C-13.48380242 38.28251524 -13.52810761 36.37241525 -13.58520508 34.46273804 C-14.08364626 17.20496504 -14.08364626 17.20496504 -9.59375 11.23046875 C-7.70898438 9.25463867 -7.70898438 9.25463867 -6 8 C-5.34 8 -4.68 8 -4 8 C-3.8453125 7.13375 -3.8453125 7.13375 -3.6875 6.25 C-2.90207202 3.67950842 -1.69495803 2.06342716 0 0 Z " fill="#F7F338" transform="translate(154,166)"/>
<path d="M0 0 C0.86625 0.14824219 1.7325 0.29648438 2.625 0.44921875 C5.55519149 1.5143048 6.49689569 2.6109072 8 5.3125 C7.77962372 8.98543796 7.63033454 10.68216546 5 13.3125 C3.3603125 13.498125 3.3603125 13.498125 1.6875 13.6875 C-2.07047625 14.01435305 -2.07047625 14.01435305 -4.625 16.4375 C-7 18.3125 -7 18.3125 -9.8125 18.0625 C-10.534375 17.815 -11.25625 17.5675 -12 17.3125 C-12 15.6625 -12 14.0125 -12 12.3125 C-10.68 11.6525 -9.36 10.9925 -8 10.3125 C-8.37125 9.405 -8.7425 8.4975 -9.125 7.5625 C-10 4.3125 -10 4.3125 -9.3125 2 C-6.70604788 -1.35115273 -3.76890665 -0.70106151 0 0 Z " fill="#D7C34A" transform="translate(436,197.6875)"/>
<path d="M0 0 C3.375 1.0625 3.375 1.0625 4.625 3.0625 C4.8725 3.7225 5.12 4.3825 5.375 5.0625 C6.365 5.3925 7.355 5.7225 8.375 6.0625 C9.125 8.8125 9.125 8.8125 9.375 12.0625 C7.625 14.4375 7.625 14.4375 5.375 16.0625 C4.385 16.0625 3.395 16.0625 2.375 16.0625 C1.715 18.0425 1.055 20.0225 0.375 22.0625 C-1.29111905 22.105221 -2.95882885 22.10313832 -4.625 22.0625 C-5.625 21.0625 -5.625 21.0625 -5.65234375 18.98828125 C-5.62269531 18.12589844 -5.59304688 17.26351562 -5.5625 16.375 C-5.49869542 12.92955278 -5.63600925 11.03332549 -6.875 7.75 C-7.625 5.0625 -7.625 5.0625 -6.1875 2.125 C-3.625 0.0625 -3.625 0.0625 0 0 Z " fill="#D2C14B" transform="translate(423.625,180.9375)"/>
<path d="M0 0 C0.33 0.66 0.66 1.32 1 2 C1.66 2 2.32 2 3 2 C3 2.99 3 3.98 3 5 C5.64 5.33 8.28 5.66 11 6 C9.68 6.33 8.36 6.66 7 7 C7.33 7.99 7.66 8.98 8 10 C7.5625 12.6875 7.5625 12.6875 7 15 C5.35 14.34 3.7 13.68 2 13 C2 11.68 2 10.36 2 9 C1.34 9 0.68 9 0 9 C0 8.34 0 7.68 0 7 C-0.99 7.495 -0.99 7.495 -2 8 C-2 8.66 -2 9.32 -2 10 C-2.66 10 -3.32 10 -4 10 C-4.103125 10.61875 -4.20625 11.2375 -4.3125 11.875 C-5 14 -5 14 -8 16 C-9.66619446 16.0396713 -11.33391013 16.04384447 -13 16 C-13.33 16.33 -13.66 16.66 -14 17 C-11.36 17 -8.72 17 -6 17 C-5.67 17.99 -5.34 18.98 -5 20 C-6.45880109 19.85892253 -7.91703551 19.71197585 -9.375 19.5625 C-10.59316406 19.44068359 -10.59316406 19.44068359 -11.8359375 19.31640625 C-14 19 -14 19 -16 18 C-15.814375 16.453125 -15.814375 16.453125 -15.625 14.875 C-16.13921048 9.56149168 -18.02517787 8.39516057 -22 5 C-21.67 4.01 -21.34 3.02 -21 2 C-18.35652976 2.45316633 -16.08148874 2.96354451 -13.625 4.0625 C-10.32697773 5.2403651 -7.47484769 5.13626854 -4 5 C-4.33 3.68 -4.66 2.36 -5 1 C-3.35 0.67 -1.7 0.34 0 0 Z M-8 7 C-6.02 7.99 -6.02 7.99 -4 9 C-4 8.34 -4 7.68 -4 7 C-5.32 7 -6.64 7 -8 7 Z M-12 11 C-11 15 -11 15 -11 15 Z M-10 11 C-10 11.66 -10 12.32 -10 13 C-9.01 12.67 -8.02 12.34 -7 12 C-7.99 11.67 -8.98 11.34 -10 11 Z " fill="#45AD61" transform="translate(97,246)"/>
<path d="M0 0 C1.9375 2.0625 1.9375 2.0625 3 4 C0 4 0 4 -2.375 2.8125 C-4.98834794 1.70689552 -4.98834794 1.70689552 -7.4375 2.9375 C-14.83149327 8.88876287 -20.27692524 17.47856775 -26 25 C-26.66 24.34 -27.32 23.68 -28 23 C-26.68 21.02 -25.36 19.04 -24 17 C-25.98 16.67 -27.96 16.34 -30 16 C-30.625 13.6875 -30.625 13.6875 -31 11 C-30.34 10.01 -29.68 9.02 -29 8 C-27.68 8 -26.36 8 -25 8 C-25 8.66 -25 9.32 -25 10 C-24.01 10.33 -23.02 10.66 -22 11 C-22 11.66 -22 12.32 -22 13 C-21.01 13 -20.02 13 -19 13 C-19 12.34 -19 11.68 -19 11 C-20.32 10.34 -21.64 9.68 -23 9 C-23 8.34 -23 7.68 -23 7 C-23.66 7 -24.32 7 -25 7 C-24.67 5.35 -24.34 3.7 -24 2 C-20.98968256 1.06576355 -20.13349732 0.95550089 -17 2 C-17 2.66 -17 3.32 -17 4 C-16.01 4.33 -15.02 4.66 -14 5 C-13.21625 4.195625 -12.4325 3.39125 -11.625 2.5625 C-7.50218345 -1.46215425 -5.59407695 -1.27584211 0 0 Z " fill="#F9E150" transform="translate(162,157)"/>
<path d="M0 0 C0.66 0 1.32 0 2 0 C1.835 0.94875 1.67 1.8975 1.5 2.875 C0.9473365 5.80168901 0.9473365 5.80168901 1 8 C1 24.66666667 1 41.33333333 1 58 C0.67 58 0.34 58 0 58 C-0.33 43.48 -0.66 28.96 -1 14 C-2.32 15.65 -3.64 17.3 -5 19 C-5.66 19 -6.32 19 -7 19 C-7 18.34 -7 17.68 -7 17 C-8.32 16.67 -9.64 16.34 -11 16 C-9.55183158 11.69484714 -7.38004712 8.68002467 -4.5 5.1875 C-3.7059375 4.21167969 -2.911875 3.23585937 -2.09375 2.23046875 C-1.4028125 1.49441406 -0.711875 0.75835937 0 0 Z " fill="#F6E974" transform="translate(136,187)"/>
<path d="M0 0 C0.639375 0.28875 1.27875 0.5775 1.9375 0.875 C5.29640953 2.10888513 8.60719714 2.83356102 12.109375 3.53515625 C14 4 14 4 15 5 C15.07179964 6.51928038 15.08392007 8.04167482 15.0625 9.5625 C15.05347656 10.38878906 15.04445313 11.21507812 15.03515625 12.06640625 C15.02355469 12.70449219 15.01195313 13.34257812 15 14 C13.68 13.34 12.36 12.68 11 12 C9.68 13.32 8.36 14.64 7 16 C7.66 16 8.32 16 9 16 C9 16.66 9 17.32 9 18 C7.68 18 6.36 18 5 18 C4.34 16.35 3.68 14.7 3 13 C2.34 13 1.68 13 1 13 C0.67 11.35 0.34 9.7 0 8 C0.99 8 1.98 8 3 8 C2.39816251 5.97954558 1.72693904 3.97888961 1 2 C0.34 1.67 -0.32 1.34 -1 1 C-0.67 0.67 -0.34 0.34 0 0 Z M6 9 C10 10 10 10 10 10 Z " fill="#77C060" transform="translate(96,232)"/>
<path d="M0 0 C0.8353125 0.2165625 0.8353125 0.2165625 1.6875 0.4375 C4.03971043 1.03962049 4.03971043 1.03962049 6.625 1.4375 C9 2 9 2 11 4 C10 5 10 5 7.125 5.1875 C4 5 4 5 1 3 C0.01 4.485 0.01 4.485 -1 6 C-0.15115234 6.68835938 -0.15115234 6.68835938 0.71484375 7.390625 C1.44832031 8.00421875 2.18179688 8.6178125 2.9375 9.25 C3.66839844 9.85328125 4.39929688 10.4565625 5.15234375 11.078125 C7.10326334 13.10741134 7.61731779 14.254407 8 17 C6.02 17.99 6.02 17.99 4 19 C4 18.34 4 17.68 4 17 C3.46375 16.7525 2.9275 16.505 2.375 16.25 C-0.56424252 14.70303025 -3.25754408 12.86985631 -6 11 C-6.2475 11.804375 -6.495 12.60875 -6.75 13.4375 C-7.1625 14.283125 -7.575 15.12875 -8 16 C-10.078125 16.66015625 -10.078125 16.66015625 -12 17 C-11.05016642 15.49460339 -10.08988109 13.99579653 -9.125 12.5 C-8.59132812 11.6646875 -8.05765625 10.829375 -7.5078125 9.96875 C-7.01023438 9.3190625 -6.51265625 8.669375 -6 8 C-5.34 8 -4.68 8 -4 8 C-3.8453125 7.13375 -3.8453125 7.13375 -3.6875 6.25 C-2.90207202 3.67950842 -1.69495803 2.06342716 0 0 Z " fill="#FAE253" transform="translate(154,166)"/>
<path d="M0 0 C1.32 0.66 2.64 1.32 4 2 C4 2.99 4 3.98 4 5 C3.34 4.67 2.68 4.34 2 4 C2.66 5.98 3.32 7.96 4 10 C3.34 10 2.68 10 2 10 C2 10.33 2 10.66 2 11 C2 12.32 2 13.64 2 15 C3.32 15.33 4.64 15.66 6 16 C5.67 16.99 5.34 17.98 5 19 C4.01 18.34 3.02 17.68 2 17 C1.01 16.67 0.02 16.34 -1 16 C-1 14.68 -1 13.36 -1 12 C-1.350625 11.29875 -1.70125 10.5975 -2.0625 9.875 C-2.371875 9.25625 -2.68125 8.6375 -3 8 C-2.67 7.34 -2.34 6.68 -2 6 C-4.0399719 7.36323743 -4.0399719 7.36323743 -6 9 C-6 9.66 -6 10.32 -6 11 C-6.66 11 -7.32 11 -8 11 C-7.67 12.65 -7.34 14.3 -7 16 C-8.33333333 14.66666667 -9.66666667 13.33333333 -11 12 C-11.66 12.99 -12.32 13.98 -13 15 C-13.02689216 13.52093108 -13.04634621 12.04172517 -13.0625 10.5625 C-13.07410156 9.73878906 -13.08570312 8.91507813 -13.09765625 8.06640625 C-13 6 -13 6 -12 5 C-9.32941149 4.85884839 -6.67567762 4.95752893 -4 5 C-3.67 4.01 -3.34 3.02 -3 2 C-2.01 2 -1.02 2 0 2 C0 1.34 0 0.68 0 0 Z " fill="#91D262" transform="translate(95,230)"/>
<path d="M0 0 C0.33 0.66 0.66 1.32 1 2 C1.66 2 2.32 2 3 2 C3 2.99 3 3.98 3 5 C5.64 5.33 8.28 5.66 11 6 C9.68 6.33 8.36 6.66 7 7 C7.33 7.99 7.66 8.98 8 10 C7.5625 12.6875 7.5625 12.6875 7 15 C5.35 14.34 3.7 13.68 2 13 C2 11.68 2 10.36 2 9 C1.34 9 0.68 9 0 9 C0 8.34 0 7.68 0 7 C-4.455 7.495 -4.455 7.495 -9 8 C-9 8.99 -9 9.98 -9 11 C-9 12.32 -9 13.64 -9 15 C-9.66 15 -10.32 15 -11 15 C-11.99 11.7 -12.98 8.4 -14 5 C-10.7 5 -7.4 5 -4 5 C-4.33 3.68 -4.66 2.36 -5 1 C-3.35 0.67 -1.7 0.34 0 0 Z " fill="#5CA65D" transform="translate(97,246)"/>
<path d="M0 0 C0.33 0.66 0.66 1.32 1 2 C2.32 2 3.64 2 5 2 C5.33 2.99 5.66 3.98 6 5 C5.07421875 6.82421875 5.07421875 6.82421875 3.6875 8.6875 C3.23761719 9.31011719 2.78773437 9.93273437 2.32421875 10.57421875 C1.88722656 11.04472656 1.45023438 11.51523438 1 12 C0.34 12 -0.32 12 -1 12 C-0.67 10.68 -0.34 9.36 0 8 C-2.16343011 10.03268602 -2.16343011 10.03268602 -4 13 C-5.32 12.67 -6.64 12.34 -8 12 C-6.85573734 10.186508 -5.70954608 8.37423275 -4.5625 6.5625 C-3.60537109 5.04849609 -3.60537109 5.04849609 -2.62890625 3.50390625 C-1 1 -1 1 0 0 Z " fill="#D7DF50" transform="translate(124,202)"/>
<path d="M0 0 C0.66 0.33 1.32 0.66 2 1 C1.2575 2.0828125 1.2575 2.0828125 0.5 3.1875 C-2.88573626 10.00734018 -1.60015389 18.78198484 0.5 25.8125 C0.98155427 27.21480388 1.47425432 28.61365871 2 30 C-1 29 -1 29 -1.9140625 27.29296875 C-2.26597656 26.25076172 -2.26597656 26.25076172 -2.625 25.1875 C-2.86476563 24.50042969 -3.10453125 23.81335938 -3.3515625 23.10546875 C-5.75287179 15.3084464 -5.49129202 8.46303707 -2 1 C-1.34 0.67 -0.68 0.34 0 0 Z " fill="#53B75B" transform="translate(70,238)"/>
<path d="M0 0 C0.66 0 1.32 0 2 0 C0.36676968 3.67915862 -1.92017366 6.63590578 -4.375 9.8125 C-6.92525263 13.13887242 -9.38165905 16.42641816 -11.375 20.125 C-13 23 -13 23 -16 25 C-16.99 24.67 -17.98 24.34 -19 24 C-18.34644531 23.27296875 -18.34644531 23.27296875 -17.6796875 22.53125 C-12.76393937 16.99837332 -7.98865916 11.40912999 -4.25 5 C-3.8375 4.34 -3.425 3.68 -3 3 C-2.34 3 -1.68 3 -1 3 C-0.67 2.01 -0.34 1.02 0 0 Z " fill="#F9E24B" transform="translate(133,182)"/>
<path d="M0 0 C0.66 0.99 1.32 1.98 2 3 C0.9171875 3.309375 0.9171875 3.309375 -0.1875 3.625 C-4.56409418 5.76466827 -7.13580709 8.77393165 -8.875 13.25390625 C-9.36799786 14.81249843 -9.84885909 16.37499119 -10.31640625 17.94140625 C-11.13257852 20.39925075 -12.16564868 22.16564868 -14 24 C-14.66 24 -15.32 24 -16 24 C-10.85714286 7.71428571 -10.85714286 7.71428571 -5 2 C-2.1875 0.625 -2.1875 0.625 0 0 Z " fill="#ECCF47" transform="translate(128,242)"/>
<path d="M0 0 C0.33 0.66 0.66 1.32 1 2 C2.32 2 3.64 2 5 2 C5 2.66 5 3.32 5 4 C6.32 4.66 7.64 5.32 9 6 C8.67 6.99 8.34 7.98 8 9 C7.34 9 6.68 9 6 9 C6 8.01 6 7.02 6 6 C5.34 6 4.68 6 4 6 C3.67 6.99 3.34 7.98 3 9 C2.67 8.01 2.34 7.02 2 6 C1.01 6 0.02 6 -1 6 C-1 6.66 -1 7.32 -1 8 C-0.34 8.33 0.32 8.66 1 9 C-1.64 8.67 -4.28 8.34 -7 8 C-6.67 7.34 -6.34 6.68 -6 6 C-4.02 6.495 -4.02 6.495 -2 7 C-2 6.34 -2 5.68 -2 5 C-2.66 5 -3.32 5 -4 5 C-3 2 -3 2 0 0 Z " fill="#4FB555" transform="translate(107,243)"/>
<path d="M0 0 C0.66 0.33 1.32 0.66 2 1 C1.67 2.093125 1.34 3.18625 1 4.3125 C-1.16725663 13.18568838 -0.73544734 20.15691535 4 28 C3.01 28 2.02 28 1 28 C-3.5978135 21.81063567 -3.63684687 14.44049425 -3 7 C-2.23605014 4.41944845 -1.2741349 2.38900294 0 0 Z " fill="#48B165" transform="translate(75,238)"/>
<path d="M0 0 C1.60727327 0.22917968 3.21087416 0.48420802 4.8125 0.75 C5.70582031 0.88921875 6.59914063 1.0284375 7.51953125 1.171875 C10.55607693 2.18565088 11.47196904 3.2208296 13 6 C12.77962372 9.67293796 12.63033454 11.36966546 10 14 C6.375 14.125 6.375 14.125 3 14 C2.3125 12.1875 2.3125 12.1875 2 10 C3.4375 8.25 3.4375 8.25 5 7 C5 7.66 5 8.32 5 9 C6.65 9.33 8.3 9.66 10 10 C10.33 9.01 10.66 8.02 11 7 C8.76224766 3.6433715 8.06679952 3.42003986 4.375 2.3125 C3.55773437 2.06113281 2.74046875 1.80976563 1.8984375 1.55078125 C1.27195312 1.36902344 0.64546875 1.18726563 0 1 C0 0.67 0 0.34 0 0 Z " fill="#E4C649" transform="translate(431,197)"/>
<path d="M0 0 C0 4.82034999 -1.33364049 7.28604338 -4.625 10.8125 C-5.40875 11.534375 -6.1925 12.25625 -7 13 C-7.99 12.67 -8.98 12.34 -10 12 C-8.23186986 6.37413137 -4.83239156 3.22159437 0 0 Z " fill="#9FD956" transform="translate(116,220)"/>
<path d="M0 0 C8.35010941 1.33041575 8.35010941 1.33041575 11.0625 4.125 C11.371875 4.74375 11.68125 5.3625 12 6 C11.34 7.32 10.68 8.64 10 10 C7.69 9.01 5.38 8.02 3 7 C3 5.35 3 3.7 3 2 C2.01 1.67 1.02 1.34 0 1 C0 0.67 0 0.34 0 0 Z " fill="#B7B94E" transform="translate(431,198)"/>
<path d="M0 0 C-0.33 0.99 -0.66 1.98 -1 3 C-3.64 3.33 -6.28 3.66 -9 4 C-9 4.33 -9 4.66 -9 5 C-10.98 5 -12.96 5 -15 5 C-15 4.34 -15 3.68 -15 3 C-15.763125 3.226875 -16.52625 3.45375 -17.3125 3.6875 C-18.199375 3.790625 -19.08625 3.89375 -20 4 C-21.66796875 2.51953125 -21.66796875 2.51953125 -23 1 C-21.21142578 1.01740234 -21.21142578 1.01740234 -19.38671875 1.03515625 C-17.82031406 1.04453592 -16.25390769 1.05363593 -14.6875 1.0625 C-13.50897461 1.07506836 -13.50897461 1.07506836 -12.30664062 1.08789062 C-11.1706543 1.09272461 -11.1706543 1.09272461 -10.01171875 1.09765625 C-8.96697388 1.10551147 -8.96697388 1.10551147 -7.90112305 1.11352539 C-5.09018708 0.9456706 -2.88241142 0 0 0 Z " fill="#4FAE61" transform="translate(108,277)"/>
<path d="M0 0 C1.423125 0.495 1.423125 0.495 2.875 1 C9.0256156 2.76267642 15.82605872 2.64638434 22 1 C22.33 1.66 22.66 2.32 23 3 C16.96117757 5.7760887 10.08259564 6.18108536 3.6640625 4.32421875 C1.75 3.5 1.75 3.5 -1 2 C-0.67 1.34 -0.34 0.68 0 0 Z " fill="#3AAA72" transform="translate(84,270)"/>
<path d="M0 0 C0.66 0 1.32 0 2 0 C2.33 1.32 2.66 2.64 3 4 C2.01 4 1.02 4 0 4 C1.12451727 6.9719385 2.22293791 9.33440687 4 12 C2.68 12.33 1.36 12.66 0 13 C-0.66 11.35 -1.32 9.7 -2 8 C-4.64 7.67 -7.28 7.34 -10 7 C-10 5.02 -10 3.04 -10 1 C-9.67 1 -9.34 1 -9 1 C-9 2.65 -9 4.3 -9 6 C-6.36 5.34 -3.72 4.68 -1 4 C-0.67 2.68 -0.34 1.36 0 0 Z " fill="#40A064" transform="translate(93,256)"/>
<path d="M0 0 C6.625 -0.25 6.625 -0.25 10 2 C8.68 2 7.36 2 6 2 C6.33 2.99 6.66 3.98 7 5 C6.5625 7.6875 6.5625 7.6875 6 10 C3.525 9.01 3.525 9.01 1 8 C1 6.68 1 5.36 1 4 C0.34 4 -0.32 4 -1 4 C-0.67 2.68 -0.34 1.36 0 0 Z " fill="#6ACA6E" transform="translate(98,251)"/>
<path d="M0 0 C0.66 0.33 1.32 0.66 2 1 C-3.46869961 5.73953966 -6.46922013 7.39635684 -14 7 C-16.4375 6 -16.4375 6 -18 5 C-18.33 5.99 -18.66 6.98 -19 8 C-19.66 7.67 -20.32 7.34 -21 7 C-20.34 5.35 -19.68 3.7 -19 2 C-18.2575 2.2165625 -18.2575 2.2165625 -17.5 2.4375 C-10.04707321 4.36633678 -10.04707321 4.36633678 -3.125 2 C-2.09375 1.34 -1.0625 0.68 0 0 Z " fill="#F0DB4A" transform="translate(139,261)"/>
<path d="M0 0 C1.80411967 2.75924185 2.0127245 3.88972103 1.625 7.25 C1.41875 8.1575 1.2125 9.065 1 10 C-0.32 10.33 -1.64 10.66 -3 11 C-3 9.68 -3 8.36 -3 7 C-3.99 7 -4.98 7 -6 7 C-6 6.01 -6 5.02 -6 4 C-5.01 3.67 -4.02 3.34 -3 3 C-1.33289654 1.50014391 -1.33289654 1.50014391 0 0 Z " fill="#B3B848" transform="translate(117,262)"/>
<path d="M0 0 C0.99 0.66 1.98 1.32 3 2 C3.29296875 4.1640625 3.29296875 4.1640625 3.1875 6.625 C3.16042969 7.44226563 3.13335937 8.25953125 3.10546875 9.1015625 C3.07066406 9.72804687 3.03585938 10.35453125 3 11 C0.69 11.33 -1.62 11.66 -4 12 C-4 11.01 -4 10.02 -4 9 C-4.66 9 -5.32 9 -6 9 C-6 8.34 -6 7.68 -6 7 C-4.02 7.66 -2.04 8.32 0 9 C-0.185625 8.071875 -0.37125 7.14375 -0.5625 6.1875 C-1 3 -1 3 0 0 Z " fill="#8BD368" transform="translate(90,240)"/>
<path d="M0 0 C3.53790403 3.69172595 3.59115883 7.09390595 4 12 C1 14 1 14 -2 14 C-2 13.34 -2 12.68 -2 12 C-1.34 11.67 -0.68 11.34 0 11 C-0.495 10.5875 -0.99 10.175 -1.5 9.75 C-3 8 -3 8 -3 4 C-2.34 4 -1.68 4 -1 4 C-0.67 4.33 -0.34 4.66 0 5 C0 3.35 0 1.7 0 0 Z " fill="#4DBD6E" transform="translate(96,256)"/>
<path d="M0 0 C0.66 0.66 1.32 1.32 2 2 C-1.96 5.96 -5.92 9.92 -10 14 C-10.66 13.67 -11.32 13.34 -12 13 C-8.43679155 7.90789714 -4.95258714 3.77339973 0 0 Z " fill="#85C95A" transform="translate(80,225)"/>
<path d="M0 0 C1.98 0.99 1.98 0.99 4 2 C4 2.99 4 3.98 4 5 C4.99 5 5.98 5 7 5 C7.99 5 8.98 5 10 5 C10.33 5.99 10.66 6.98 11 8 C10 9 10 9 6.9375 9.0625 C5.968125 9.041875 4.99875 9.02125 4 9 C4.33 9.99 4.66 10.98 5 12 C4.34 12 3.68 12 3 12 C1.82923301 8.01939223 0.74250597 4.08378283 0 0 Z " fill="#479F5D" transform="translate(96,254)"/>
<path d="M0 0 C1.2065625 0.0309375 1.2065625 0.0309375 2.4375 0.0625 C2.7675 2.0425 3.0975 4.0225 3.4375 6.0625 C2.7775 6.0625 2.1175 6.0625 1.4375 6.0625 C1.7675 7.7125 2.0975 9.3625 2.4375 11.0625 C1.10416667 9.72916667 -0.22916667 8.39583333 -1.5625 7.0625 C-2.2225 8.0525 -2.8825 9.0425 -3.5625 10.0625 C-3.58939216 8.58343108 -3.60884621 7.10422517 -3.625 5.625 C-3.63660156 4.80128906 -3.64820312 3.97757813 -3.66015625 3.12890625 C-3.51340586 0.02366796 -3.12550237 0.07623177 0 0 Z " fill="#8AC456" transform="translate(85.5625,234.9375)"/>
<path d="M0 0 C0.12375 0.721875 0.2475 1.44375 0.375 2.1875 C0.9904931 4.95721894 1.88444374 7.3970354 3 10 C2.01 10 1.02 10 0 10 C-0.66 8.35 -1.32 6.7 -2 5 C-2.99 6.32 -3.98 7.64 -5 9 C-4.67 7.02 -4.34 5.04 -4 3 C-5.32 2.67 -6.64 2.34 -8 2 C-2.25 0 -2.25 0 0 0 Z " fill="#7DB559" transform="translate(93,236)"/>
<path d="M0 0 C0.33 0.66 0.66 1.32 1 2 C-0.75 4.0625 -0.75 4.0625 -3 6 C-5.25 5.75 -5.25 5.75 -7 5 C-7 6.98 -7 8.96 -7 11 C-8.32 11.33 -9.64 11.66 -11 12 C-11 11.34 -11 10.68 -11 10 C-10.01 10 -9.02 10 -8 10 C-8.33 7.69 -8.66 5.38 -9 3 C-7.35 3.33 -5.7 3.66 -4 4 C-3.67 3.01 -3.34 2.02 -3 1 C-2.01 0.67 -1.02 0.34 0 0 Z " fill="#96B052" transform="translate(431,190)"/>
<path d="M0 0 C1.0725 0.2475 2.145 0.495 3.25 0.75 C3.25 1.08 3.25 1.41 3.25 1.75 C1.27 1.75 -0.71 1.75 -2.75 1.75 C-3.08 2.74 -3.41 3.73 -3.75 4.75 C-5.625 6.5 -5.625 6.5 -7.75 7.75 C-8.74 7.42 -9.73 7.09 -10.75 6.75 C-11.4375 4.6875 -11.4375 4.6875 -11.75 2.75 C-11.09 2.42 -10.43 2.09 -9.75 1.75 C-9.09 2.41 -8.43 3.07 -7.75 3.75 C-7.234375 3.069375 -6.71875 2.38875 -6.1875 1.6875 C-3.75 -0.25 -3.75 -0.25 0 0 Z " fill="#AFB74F" transform="translate(436.75,208.25)"/>
<path d="M0 0 C1.9375 2.0625 1.9375 2.0625 3 4 C0 4 0 4 -2.25 2.9375 C-5.79762611 1.72808201 -8.36824342 2.28789087 -12 3 C-7.9708434 -1.21230008 -5.79355972 -1.32133818 0 0 Z " fill="#FBEF53" transform="translate(162,157)"/>
<path d="M0 0 C1.32 0.33 2.64 0.66 4 1 C4 1.99 4 2.98 4 4 C3.34 4 2.68 4 2 4 C1.67 5.32 1.34 6.64 1 8 C0.34 8 -0.32 8 -1 8 C-2.38232443 6.37373596 -3.71937515 4.7074998 -5 3 C-4.01 2.34 -3.02 1.68 -2 1 C-0.68 1.66 0.64 2.32 2 3 C2 2.34 2 1.68 2 1 C1.34 0.67 0.68 0.34 0 0 Z " fill="#60C56D" transform="translate(91,252)"/>
<path d="M0 0 C0.66 0 1.32 0 2 0 C1.51058824 5.50588235 1.51058824 5.50588235 -0.9375 7.875 C-3 9 -3 9 -5 9 C-4.42676569 5.13066838 -2.61046448 2.84777943 0 0 Z " fill="#F9E658" transform="translate(136,187)"/>
<path d="M0 0 C0 0.66 0 1.32 0 2 C-0.59167969 2.19335938 -1.18335937 2.38671875 -1.79296875 2.5859375 C-5.9146645 3.94414719 -9.9950524 5.32050585 -14 7 C-14 6.01 -14 5.02 -14 4 C-12.42032193 3.32471777 -10.83608097 2.66010306 -9.25 2 C-8.36828125 1.62875 -7.4865625 1.2575 -6.578125 0.875 C-4 0 -4 0 0 0 Z " fill="#A1D450" transform="translate(98,225)"/>
<path d="M0 0 C1.32 0 2.64 0 4 0 C3.47731534 2.76276177 2.89130413 5.3260876 2 8 C1.01 8 0.02 8 -1 8 C-1.125 2.25 -1.125 2.25 0 0 Z " fill="#86B14F" transform="translate(109,270)"/>
<path d="M0 0 C0.66 0.99 1.32 1.98 2 3 C1.2575 3.2475 0.515 3.495 -0.25 3.75 C-3.20124062 5.09147301 -4.84814974 6.60905526 -7 9 C-7.99 8.67 -8.98 8.34 -10 8 C-5 1.42857143 -5 1.42857143 0 0 Z " fill="#F0D94D" transform="translate(128,242)"/>
<path d="M0 0 C0.33 0 0.66 0 1 0 C1.47970123 1.74985354 1.95873924 3.49988891 2.4375 5.25 C2.83775391 6.71179688 2.83775391 6.71179688 3.24609375 8.203125 C3.85544584 10.46372653 4.44238255 12.72622009 5 15 C2 14 2 14 1.015625 12.36328125 C-0.67397789 7.83755921 -1.32521546 4.81896529 0 0 Z " fill="#3EB367" transform="translate(67,253)"/>
<path d="M0 0 C0.33 0.99 0.66 1.98 1 3 C-0.9628843 6.1708131 -2.12536 7.74158364 -5.75 8.8125 C-6.4925 8.874375 -7.235 8.93625 -8 9 C-7.04663979 7.68388323 -6.08714226 6.37221039 -5.125 5.0625 C-4.59132813 4.33160156 -4.05765625 3.60070312 -3.5078125 2.84765625 C-2 1 -2 1 0 0 Z " fill="#DCD64B" transform="translate(122,198)"/>
<path d="M0 0 C2.31 0 4.62 0 7 0 C7 0.66 7 1.32 7 2 C6.01 2.66 5.02 3.32 4 4 C4.165 4.61875 4.33 5.2375 4.5 5.875 C5 8 5 8 5 10 C4.34 10 3.68 10 3 10 C2.01 6.7 1.02 3.4 0 0 Z " fill="#57AF62" transform="translate(83,251)"/>
<path d="M0 0 C4.75 0.75 4.75 0.75 7 3 C4.525 4.485 4.525 4.485 2 6 C1.01 5.01 0.02 4.02 -1 3 C-0.67 2.01 -0.34 1.02 0 0 Z " fill="#5AC164" transform="translate(76,248)"/>
<path d="M0 0 C0 3.28176588 -0.47835901 5.10888212 -2 8 C-4.125 8.8125 -4.125 8.8125 -6 9 C-5.8125 6.1875 -5.8125 6.1875 -5 3 C-2.4375 1.125 -2.4375 1.125 0 0 Z " fill="#99C351" transform="translate(116,220)"/>
<path d="M0 0 C0.66 0.99 1.32 1.98 2 3 C-2.95 4.485 -2.95 4.485 -8 6 C-8.33 5.34 -8.66 4.68 -9 4 C-6.03 2.68 -3.06 1.36 0 0 Z " fill="#95C552" transform="translate(92,219)"/>
<path d="M0 0 C0.33 0.66 0.66 1.32 1 2 C2.32 2 3.64 2 5 2 C5.33 2.99 5.66 3.98 6 5 C4.35 5.66 2.7 6.32 1 7 C-1 4 -1 4 -1 1 C-0.67 0.67 -0.34 0.34 0 0 Z " fill="#D5CC4A" transform="translate(124,202)"/>
<path d="M0 0 C0.33 1.65 0.66 3.3 1 5 C-0.98 5 -2.96 5 -5 5 C-5.33 4.01 -5.66 3.02 -6 2 C-3 0 -3 0 0 0 Z " fill="#F3D24D" transform="translate(138,167)"/>
<path d="M0 0 C1.32 0 2.64 0 4 0 C4 0.66 4 1.32 4 2 C2 3.5 2 3.5 0 5 C0 5.66 0 6.32 0 7 C1.32 7.33 2.64 7.66 4 8 C3.01 8.33 2.02 8.66 1 9 C-0.5625 7.75 -0.5625 7.75 -2 6 C-1.7181953 3.67511119 -1.04553582 2.09107165 0 0 Z " fill="#FCF14C" transform="translate(133,165)"/>
<path d="M0 0 C2.97 1.65 5.94 3.3 9 5 C8.67 5.66 8.34 6.32 8 7 C5.0280615 5.87548273 2.66559313 4.77706209 0 3 C0 2.01 0 1.02 0 0 Z " fill="#2BAC74" transform="translate(76,272)"/>
<path d="M0 0 C1.80411967 2.75924185 2.0127245 3.88972103 1.625 7.25 C1.41875 8.1575 1.2125 9.065 1 10 C0.34 9.67 -0.32 9.34 -1 9 C-1.59355614 6.35139573 -1.74209269 3.70802678 -2 1 C-1.34 0.67 -0.68 0.34 0 0 Z " fill="#CDBE41" transform="translate(117,262)"/>
<path d="M0 0 C3.3 0 6.6 0 10 0 C10.33 0.99 10.66 1.98 11 3 C9.54077307 2.88590407 8.08259402 2.75834456 6.625 2.625 C5.40683594 2.52058594 5.40683594 2.52058594 4.1640625 2.4140625 C2 2 2 2 0 0 Z " fill="#49C16E" transform="translate(81,263)"/>
<path d="M0 0 C0.66 0.33 1.32 0.66 2 1 C2.625 4.0625 2.625 4.0625 3 7 C0.525 6.01 0.525 6.01 -2 5 C-1.34 3.35 -0.68 1.7 0 0 Z " fill="#56C568" transform="translate(101,254)"/>
<path d="M0 0 C2.64 0 5.28 0 8 0 C8 1.65 8 3.3 8 5 C6.68 5 5.36 5 4 5 C4 3.68 4 2.36 4 1 C2.68 0.67 1.36 0.34 0 0 Z " fill="#5FA756" transform="translate(103,237)"/>
<path d="M0 0 C0.66 0 1.32 0 2 0 C2 1.65 2 3.3 2 5 C2.66 5 3.32 5 4 5 C4 5.66 4 6.32 4 7 C2.68 7 1.36 7 0 7 C-1.125 2.25 -1.125 2.25 0 0 Z " fill="#6CBC63" transform="translate(101,243)"/>
<path d="M0 0 C0.66 0.33 1.32 0.66 2 1 C1.01 3.97 0.02 6.94 -1 10 C-1.33 10 -1.66 10 -2 10 C-2.17942163 6.05272412 -2.09350689 3.4019487 0 0 Z " fill="#6AC35D" transform="translate(75,238)"/>
<path d="M0 0 C1.98 0.66 3.96 1.32 6 2 C5.67 3.32 5.34 4.64 5 6 C4.34 5.67 3.68 5.34 3 5 C3 4.34 3 3.68 3 3 C2.34 3 1.68 3 1 3 C0.67 3.66 0.34 4.32 0 5 C-0.33 4.01 -0.66 3.02 -1 2 C-0.67 1.34 -0.34 0.68 0 0 Z " fill="#85D56C" transform="translate(100,240)"/>
<path d="M0 0 C0.99 0.99 1.98 1.98 3 3 C1.68 4.32 0.36 5.64 -1 7 C-1.66 6.67 -2.32 6.34 -3 6 C-1.125 1.125 -1.125 1.125 0 0 Z " fill="#F6E54B" transform="translate(128,197)"/>
<path d="M0 0 C1.32 0.66 2.64 1.32 4 2 C2.71034824 3.37562854 1.37310707 4.70766393 0 6 C-0.66 6 -1.32 6 -2 6 C-1.125 1.125 -1.125 1.125 0 0 Z " fill="#E5C749" transform="translate(427,188)"/>
<path d="M0 0 C-2.5654594 2.5654594 -4.47686668 2.54046087 -8 3 C-8 2.34 -8 1.68 -8 1 C-4.93251126 -0.86240388 -3.40254489 -1.2151946 0 0 Z " fill="#66AF59" transform="translate(107,272)"/>
<path d="M0 0 C1.98 0.99 3.96 1.98 6 3 C6 3.66 6 4.32 6 5 C4.68 5.33 3.36 5.66 2 6 C1.87625 5.360625 1.7525 4.72125 1.625 4.0625 C1.315625 3.0415625 1.315625 3.0415625 1 2 C0.34 1.67 -0.32 1.34 -1 1 C-0.67 0.67 -0.34 0.34 0 0 Z " fill="#85BA56" transform="translate(96,232)"/>
<path d="M0 0 C0.66 0 1.32 0 2 0 C2 1.65 2 3.3 2 5 C0.68 5.33 -0.64 5.66 -2 6 C-2.33 5.34 -2.66 4.68 -3 4 C-2.34 3.67 -1.68 3.34 -1 3 C-0.67 2.01 -0.34 1.02 0 0 Z " fill="#E7C749" transform="translate(432,200)"/>
<path d="M0 0 C0.99 0.33 1.98 0.66 3 1 C2.6875 2.9375 2.6875 2.9375 2 5 C1.01 5.33 0.02 5.66 -1 6 C-1.042721 4.33388095 -1.04063832 2.66617115 -1 1 C-0.67 0.67 -0.34 0.34 0 0 Z " fill="#95AF52" transform="translate(429,199)"/>
<path d="M0 0 C1 4 1 4 1 4 Z " fill="#9AD364" transform="translate(80,238)"/>
<path d="" fill="#809E80" transform="translate(0,0)"/>
<path d="M0 0 C2 1 2 1 2 1 Z " fill="#989866" transform="translate(107,233)"/>
<path d="" fill="#FFFF80" transform="translate(0,0)"/>
<path d="" fill="#34CB68" transform="translate(0,0)"/>
<path d="" fill="#FFFF6F" transform="translate(0,0)"/>
<path d="" fill="#FFFF80" transform="translate(0,0)"/>
<path d="" fill="#FFFF80" transform="translate(0,0)"/>
</svg>
